<svg xmlns="http://www.w3.org/2000/svg" viewBox="0 0 1600 700" width="1600" height="700" role="img">
  <defs>
    <linearGradient id="g" x1="0" y1="0" x2="1" y2="1">
      <stop offset="0" stop-color="#CE7A78"/>
      <stop offset="1" stop-color="#B98BA0"/>
    </linearGradient>
    <radialGradient id="glow" cx="50%" cy="44%" r="55%">
      <stop offset="0" stop-color="#ffffff" stop-opacity=".38"/>
      <stop offset="1" stop-color="#ffffff" stop-opacity="0"/>
    </radialGradient>
  </defs>
  <rect width="1600" height="700" fill="url(#g)"/>
  <rect width="1600" height="700" fill="url(#glow)"/>
    <circle cx="256" cy="126" r="4" fill="#fff" opacity=".35"/>
    <circle cx="1344" cy="154" r="6" fill="#fff" opacity=".25"/>
    <circle cx="1280" cy="560" r="4" fill="#fff" opacity=".30"/>
    <circle cx="320" cy="574" r="5" fill="#fff" opacity=".22"/>
  <circle cx="800" cy="322" r="182" fill="#ffffff" opacity=".12"/>
  <g transform="translate(800.0,322.0) scale(8.750) translate(-12,-12)"
     fill="none" stroke="#ffffff" stroke-width="1.15" stroke-linecap="round"
     stroke-linejoin="round" vector-effect="non-scaling-stroke" opacity=".9"
     style="filter:drop-shadow(0 2px 6px rgba(90,50,55,.25))">
    <path d="M12 3v3M12 18v3M3 12h3M18 12h3M6 6l2 2M16 16l2 2M18 6l-2 2M8 16l-2 2"/><path d="M12 9a3 3 0 0 0 3 3 3 3 0 0 0-3 3 3 3 0 0 0-3-3 3 3 0 0 0 3-3Z"/>
  </g>
</svg>