<svg xmlns="http://www.w3.org/2000/svg" viewBox="0 0 800 700" width="800" height="700" role="img">
  <defs>
    <linearGradient id="g" x1="0" y1="0" x2="1" y2="1">
      <stop offset="0" stop-color="#FCEBE6"/>
      <stop offset="1" stop-color="#E29A93"/>
    </linearGradient>
    <radialGradient id="glow" cx="50%" cy="44%" r="55%">
      <stop offset="0" stop-color="#ffffff" stop-opacity=".38"/>
      <stop offset="1" stop-color="#ffffff" stop-opacity="0"/>
    </radialGradient>
  </defs>
  <rect width="800" height="700" fill="url(#g)"/>
  <rect width="800" height="700" fill="url(#glow)"/>
    <circle cx="128" cy="126" r="4" fill="#fff" opacity=".35"/>
    <circle cx="672" cy="154" r="6" fill="#fff" opacity=".25"/>
    <circle cx="640" cy="560" r="4" fill="#fff" opacity=".30"/>
    <circle cx="160" cy="574" r="5" fill="#fff" opacity=".22"/>
  <circle cx="400" cy="322" r="182" fill="#ffffff" opacity=".12"/>
  <g transform="translate(400.0,322.0) scale(8.750) translate(-12,-12)"
     fill="none" stroke="#ffffff" stroke-width="1.15" stroke-linecap="round"
     stroke-linejoin="round" vector-effect="non-scaling-stroke" opacity=".9"
     style="filter:drop-shadow(0 2px 6px rgba(90,50,55,.25))">
    <path d="M16 4.2c-3.7 0-6.7 2.9-6.7 6.6 0 1.4-.4 2.1-1.4 3.1-.6.6-.6 1.2-.1 1.7l1.1 1v2.2c0 1.4 1.1 2.5 2.5 2.5H15"/><path d="M12.8 10.6c.7.6.7 1.9 0 2.5"/>
  </g>
</svg>