<svg xmlns="http://www.w3.org/2000/svg" viewBox="0 0 800 1000" width="800" height="1000" role="img">
  <defs>
    <linearGradient id="g" x1="0" y1="0" x2="1" y2="1">
      <stop offset="0" stop-color="#F7DAD3"/>
      <stop offset="1" stop-color="#CE7A78"/>
    </linearGradient>
    <radialGradient id="glow" cx="50%" cy="44%" r="55%">
      <stop offset="0" stop-color="#ffffff" stop-opacity=".38"/>
      <stop offset="1" stop-color="#ffffff" stop-opacity="0"/>
    </radialGradient>
  </defs>
  <rect width="800" height="1000" fill="url(#g)"/>
  <rect width="800" height="1000" fill="url(#glow)"/>
    <circle cx="128" cy="180" r="4" fill="#fff" opacity=".35"/>
    <circle cx="672" cy="220" r="6" fill="#fff" opacity=".25"/>
    <circle cx="640" cy="800" r="4" fill="#fff" opacity=".30"/>
    <circle cx="160" cy="820" r="5" fill="#fff" opacity=".22"/>
  <circle cx="400" cy="460" r="208" fill="#ffffff" opacity=".12"/>
  <g transform="translate(400.0,460.0) scale(10.000) translate(-12,-12)"
     fill="none" stroke="#ffffff" stroke-width="1.15" stroke-linecap="round"
     stroke-linejoin="round" vector-effect="non-scaling-stroke" opacity=".9"
     style="filter:drop-shadow(0 2px 6px rgba(90,50,55,.25))">
    <path d="M12 3v3M12 18v3M3 12h3M18 12h3M6 6l2 2M16 16l2 2M18 6l-2 2M8 16l-2 2"/><path d="M12 9a3 3 0 0 0 3 3 3 3 0 0 0-3 3 3 3 0 0 0-3-3 3 3 0 0 0 3-3Z"/>
  </g>
</svg>