<svg xmlns="http://www.w3.org/2000/svg" viewBox="0 0 1000 800" width="1000" height="800" role="img">
  <defs>
    <linearGradient id="g" x1="0" y1="0" x2="1" y2="1">
      <stop offset="0" stop-color="#F7DAD3"/>
      <stop offset="1" stop-color="#E7CFA6"/>
    </linearGradient>
    <radialGradient id="glow" cx="50%" cy="44%" r="55%">
      <stop offset="0" stop-color="#ffffff" stop-opacity=".38"/>
      <stop offset="1" stop-color="#ffffff" stop-opacity="0"/>
    </radialGradient>
  </defs>
  <rect width="1000" height="800" fill="url(#g)"/>
  <rect width="1000" height="800" fill="url(#glow)"/>
    <circle cx="160" cy="144" r="4" fill="#fff" opacity=".35"/>
    <circle cx="840" cy="176" r="6" fill="#fff" opacity=".25"/>
    <circle cx="800" cy="640" r="4" fill="#fff" opacity=".30"/>
    <circle cx="200" cy="656" r="5" fill="#fff" opacity=".22"/>
  <circle cx="500" cy="368" r="208" fill="#ffffff" opacity=".12"/>
  <g transform="translate(500.0,392.0) scale(11.000) translate(-12,-12)"
     fill="none" stroke="#ffffff" stroke-width="1.15" stroke-linecap="round"
     stroke-linejoin="round" vector-effect="non-scaling-stroke" opacity=".92"
     style="filter:drop-shadow(0 2px 6px rgba(90,50,55,.25))">
    <path d="M2.5 13 Q12 6.4 21.5 13"/>
    <path d="M4.2 13.4 Q12 18.2 19.8 13.4"/>
    <circle cx="12" cy="13.1" r="3"/>
    <path d="M5.6 9.6 L4.5 7.6"/>
    <path d="M8.6 7.9 L8 5.8"/>
    <path d="M12 7.2 L12 5"/>
    <path d="M15.4 7.9 L16 5.8"/>
    <path d="M18.4 9.6 L19.5 7.6"/>
  </g>
</svg>
