<svg xmlns="http://www.w3.org/2000/svg" viewBox="0 0 700 900" width="700" height="900" role="img">
  <defs>
    <linearGradient id="g" x1="0" y1="0" x2="1" y2="1">
      <stop offset="0" stop-color="#C9A6BC"/>
      <stop offset="1" stop-color="#CE7A78"/>
    </linearGradient>
    <radialGradient id="glow" cx="50%" cy="44%" r="55%">
      <stop offset="0" stop-color="#ffffff" stop-opacity=".38"/>
      <stop offset="1" stop-color="#ffffff" stop-opacity="0"/>
    </radialGradient>
  </defs>
  <rect width="700" height="900" fill="url(#g)"/>
  <rect width="700" height="900" fill="url(#glow)"/>
    <circle cx="112" cy="162" r="4" fill="#fff" opacity=".35"/>
    <circle cx="588" cy="198" r="6" fill="#fff" opacity=".25"/>
    <circle cx="560" cy="720" r="4" fill="#fff" opacity=".30"/>
    <circle cx="140" cy="738" r="5" fill="#fff" opacity=".22"/>
  <circle cx="350" cy="414" r="182" fill="#ffffff" opacity=".12"/>
  <g transform="translate(350.0,414.0) scale(8.750) translate(-12,-12)"
     fill="none" stroke="#ffffff" stroke-width="1.15" stroke-linecap="round"
     stroke-linejoin="round" vector-effect="non-scaling-stroke" opacity=".9"
     style="filter:drop-shadow(0 2px 6px rgba(90,50,55,.25))">
    <path d="m15 4 1.3 2.7L19 8l-2.7 1.3L15 12l-1.3-2.7L11 8l2.7-1.3L15 4Z"/><path d="M5 21 17 9M5 21l3-1 1-3"/>
  </g>
</svg>