<svg xmlns="http://www.w3.org/2000/svg" viewBox="0 0 1000 700" width="1000" height="700" role="img">
  <defs>
    <linearGradient id="g" x1="0" y1="0" x2="1" y2="1">
      <stop offset="0" stop-color="#EAC9D8"/>
      <stop offset="1" stop-color="#F7DAD3"/>
    </linearGradient>
    <radialGradient id="glow" cx="50%" cy="44%" r="55%">
      <stop offset="0" stop-color="#ffffff" stop-opacity=".38"/>
      <stop offset="1" stop-color="#ffffff" stop-opacity="0"/>
    </radialGradient>
  </defs>
  <rect width="1000" height="700" fill="url(#g)"/>
  <rect width="1000" height="700" fill="url(#glow)"/>
    <circle cx="160" cy="126" r="4" fill="#fff" opacity=".35"/>
    <circle cx="840" cy="154" r="6" fill="#fff" opacity=".25"/>
    <circle cx="800" cy="560" r="4" fill="#fff" opacity=".30"/>
    <circle cx="200" cy="574" r="5" fill="#fff" opacity=".22"/>
  <circle cx="500" cy="322" r="182" fill="#ffffff" opacity=".12"/>
  <g transform="translate(500.0,322.0) scale(8.750) translate(-12,-12)"
     fill="none" stroke="#ffffff" stroke-width="1.15" stroke-linecap="round"
     stroke-linejoin="round" vector-effect="non-scaling-stroke" opacity=".9"
     style="filter:drop-shadow(0 2px 6px rgba(90,50,55,.25))">
    <path d="M10 2.5h4v3l1.3 1.3a2 2 0 0 1 .6 1.45V19.5a2 2 0 0 1-2 2h-3.8a2 2 0 0 1-2-2V8.25a2 2 0 0 1 .6-1.45L10 5.5v-3Z"/><path d="M8.7 12h6.6"/>
  </g>
</svg>