<svg xmlns="http://www.w3.org/2000/svg" viewBox="0 0 640 800" width="640" height="800" role="img">
  <defs>
    <linearGradient id="g" x1="0" y1="0" x2="1" y2="1">
      <stop offset="0" stop-color="#FCEBE6"/>
      <stop offset="1" stop-color="#B98BA0"/>
    </linearGradient>
    <radialGradient id="glow" cx="50%" cy="44%" r="55%">
      <stop offset="0" stop-color="#ffffff" stop-opacity=".38"/>
      <stop offset="1" stop-color="#ffffff" stop-opacity="0"/>
    </radialGradient>
  </defs>
  <rect width="640" height="800" fill="url(#g)"/>
  <rect width="640" height="800" fill="url(#glow)"/>
    <circle cx="102" cy="144" r="4" fill="#fff" opacity=".35"/>
    <circle cx="538" cy="176" r="6" fill="#fff" opacity=".25"/>
    <circle cx="512" cy="640" r="4" fill="#fff" opacity=".30"/>
    <circle cx="128" cy="656" r="5" fill="#fff" opacity=".22"/>
  <circle cx="320" cy="368" r="166" fill="#ffffff" opacity=".12"/>
  <g transform="translate(320.0,368.0) scale(8.000) translate(-12,-12)"
     fill="none" stroke="#ffffff" stroke-width="1.15" stroke-linecap="round"
     stroke-linejoin="round" vector-effect="non-scaling-stroke" opacity=".9"
     style="filter:drop-shadow(0 2px 6px rgba(90,50,55,.25))">
    <circle cx="12" cy="12" r="2.4"/><path d="M12 3.5c1.7 0 3 1.5 3 3.3S13.7 12 12 12s-3-1.9-3-3.7 1.3-3.3 3-3.3ZM12 20.5c1.7 0 3-1.5 3-3.3S13.7 12 12 12s-3 1.9-3 3.7 1.3 3.3 3 3.3ZM3.5 12c0-1.7 1.5-3 3.3-3S12 10.3 12 12s-1.9 3-3.7 3-3.3-1.3-3.3-3ZM20.5 12c0 1.7-1.5 3-3.3 3S12 13.7 12 12s1.9-3 3.7-3 3.3 1.3 3.3 3Z"/>
  </g>
</svg>